<?xml version="1.0" encoding="utf-8"?>
<!-- Generator: Adobe Illustrator 16.0.0, SVG Export Plug-In . SVG Version: 6.00 Build 0)  -->
<!DOCTYPE svg PUBLIC "-//W3C//DTD SVG 1.1//EN" "http://www.w3.org/Graphics/SVG/1.1/DTD/svg11.dtd">
<svg version="1.1" id="Layer_1" xmlns="http://www.w3.org/2000/svg" xmlns:xlink="http://www.w3.org/1999/xlink" x="0px" y="0px"
	 width="420px" height="350px" viewBox="-135 -112.5 420 350" enable-background="new -135 -112.5 420 350" xml:space="preserve">
<g>
	<path fill="#FFFFFF" d="M14.775,49.378c0,2.861,0.718,5.151,2.157,6.868c1.44,1.717,3.37,2.574,5.797,2.574
		c3.586,0,6.187-1.247,7.804-3.745c1.618-2.501,2.428-6.686,2.428-12.569V32.437c-6.316,1.819-10.925,4.084-13.827,6.792
		C16.222,41.935,14.775,45.318,14.775,49.378z"/>
	<path fill="#FFFFFF" d="M261.754-103.711h-373.42c-12.858,0-23.288,10.026-23.288,22.395v202.965
		c0,12.368,10.425,22.397,23.288,22.397H66.102l132.899,85.188l-20.443-85.188h83.199c12.864,0,23.29-10.029,23.29-22.397V-81.316
		C285.044-93.685,274.618-103.711,261.754-103.711z M-20.124,75.921h-24.324V20.1c0-7.235-0.454-11.738-1.361-13.508
		c-0.91-1.77-2.528-2.653-4.853-2.653c-2.726,0-4.86,1.367-6.4,4.101c-1.541,2.731-2.313,6.545-2.313,11.435v56.443h-24.4V-44.309
		h24.4v39.504c2.072-3.798,4.733-6.648,7.993-8.55c3.261-1.896,7.162-2.851,11.708-2.851c6.769,0,11.718,2.33,14.852,6.989
		c3.132,4.658,4.7,12.033,4.7,22.133V75.921z M36.067,75.921l-1.442-8.274c-3.082,3.33-6.451,5.844-10.114,7.535
		c-3.663,1.688-7.643,2.537-11.934,2.537c-6.872,0-12.314-2.288-16.328-6.868c-4.016-4.583-6.023-10.773-6.023-18.581
		c0-6.818,1.705-12.439,5.113-16.866c3.41-4.423,9.005-8.248,16.783-11.476c1.87-0.728,4.397-1.691,7.579-2.889
		c9.144-3.437,13.715-7.313,13.715-11.635c0-2.653-0.656-4.669-1.969-6.049c-1.312-1.38-3.21-2.07-5.683-2.07
		c-2.981,0-5.192,0.925-6.63,2.771c-1.442,1.847-2.16,4.699-2.16,8.55v0.626h-24.55c0-10.203,2.753-17.79,8.257-22.76
		c5.503-4.972,13.869-7.458,25.081-7.458c5.052,0,9.558,0.481,13.525,1.445c3.965,0.963,7.286,2.357,9.968,4.173
		c3.435,2.395,5.844,5.287,7.236,8.671c1.387,3.381,2.081,9.55,2.081,18.501v2.731v32.087c0,7.077,0.241,12.477,0.723,16.198
		c0.477,3.724,1.28,6.753,2.389,9.095H36.067V75.921z M114.988,12.451c-1.365-0.311-2.663-0.546-3.898-0.702
		c-1.244-0.155-2.362-0.235-3.371-0.235c-3.944,0-6.685,1.43-8.227,4.292c-1.536,2.862-2.311,8.459-2.311,16.786v43.329H72.785
		v-90.326H95.29v12.646c2.677-4.529,5.618-7.963,8.828-10.305c3.208-2.339,6.828-3.722,10.875-4.139v28.653H114.988z
		 M169.362,75.921l-15.685-36.772l-4.016,5.777v30.995h-24.02V-44.309h24.02v59.492l19.248-29.588h24.547L167.847,20.1
		l26.069,55.821H169.362z M231.77,75.921h-26.675V48.441h26.675V75.921z M231.77-12.533l-6.215,48.794h-14.097l-6.816-48.794
		v-31.775h27.128V-12.533z"/>
</g>
</svg>
