<?xml version="1.0" encoding="utf-8"?>
<!-- Generator: Adobe Illustrator 16.0.0, SVG Export Plug-In . SVG Version: 6.00 Build 0)  -->
<!DOCTYPE svg PUBLIC "-//W3C//DTD SVG 1.1//EN" "http://www.w3.org/Graphics/SVG/1.1/DTD/svg11.dtd">
<svg version="1.1" id="Layer_1" xmlns="http://www.w3.org/2000/svg" xmlns:xlink="http://www.w3.org/1999/xlink" x="0px" y="0px"
	 width="100px" height="100px" viewBox="0 0 100 100" enable-background="new 0 0 100 100" xml:space="preserve">
<g>
	<path fill="#FFFFFF" d="M49.625,98.75C22.951,98.75,1.25,77.049,1.25,50.375C1.25,23.7,22.951,2,49.625,2
		C76.299,2,98,23.7,98,50.375C98,77.049,76.299,98.75,49.625,98.75z M49.625,10.795c-21.824,0-39.58,17.755-39.58,39.58
		c0,21.824,17.755,39.579,39.58,39.579s39.579-17.755,39.579-39.579C89.204,28.55,71.449,10.795,49.625,10.795z"/>
</g>
<polygon fill="#FFFFFF" points="49.625,21.771 58.675,40.109 78.911,43.049 64.268,57.322 67.725,77.478 49.625,67.961 
	31.525,77.477 34.982,57.322 20.338,43.049 40.575,40.108 "/>
</svg>
