<?xml version="1.0" encoding="utf-8"?>
<!-- Generator: Adobe Illustrator 16.0.0, SVG Export Plug-In . SVG Version: 6.00 Build 0)  -->
<!DOCTYPE svg PUBLIC "-//W3C//DTD SVG 1.1//EN" "http://www.w3.org/Graphics/SVG/1.1/DTD/svg11.dtd">
<svg version="1.1" id="Layer_1" xmlns="http://www.w3.org/2000/svg" xmlns:xlink="http://www.w3.org/1999/xlink" x="0px" y="0px"
	 width="55px" height="25px" viewBox="0 0 55 25" enable-background="new 0 0 55 25" xml:space="preserve">
<path fill="#727272" d="M11.061,23.012H6.833v-9.699c0-1.258-0.078-2.04-0.235-2.348c-0.159-0.308-0.439-0.461-0.844-0.461
	c-0.474,0-0.845,0.238-1.111,0.712c-0.269,0.475-0.402,1.137-0.402,1.986v9.809H0V2.119h4.241v6.865
	c0.36-0.66,0.822-1.155,1.389-1.486c0.565-0.329,1.244-0.495,2.034-0.495c1.175,0,2.036,0.405,2.581,1.215
	c0.544,0.809,0.816,2.091,0.816,3.846V23.012z"/>
<path fill="#727272" d="M34.541,11.982c-0.24-0.054-0.464-0.095-0.679-0.122c-0.216-0.027-0.411-0.041-0.585-0.041
	c-0.686,0-1.163,0.248-1.43,0.746c-0.268,0.497-0.402,1.47-0.402,2.916v7.53h-4.239V7.316h3.911v2.197
	c0.465-0.787,0.975-1.383,1.534-1.791c0.557-0.407,1.187-0.646,1.891-0.72L34.541,11.982L34.541,11.982z"/>
<polygon fill="#727272" points="43.989,23.012 41.263,16.621 40.565,17.627 40.565,23.012 36.392,23.012 36.392,2.119 40.565,2.119 
	40.565,12.457 43.91,7.316 48.176,7.316 43.725,13.313 48.255,23.012 "/>
<rect x="50.198" y="18.236" fill="#727272" width="4.635" height="4.775"/>
<polygon fill="#727272" points="54.833,7.641 53.753,16.119 51.304,16.119 50.119,7.641 50.119,2.119 54.833,2.119 "/>
<path fill="#727272" d="M24.861,21.43c-0.083-0.646-0.125-1.584-0.125-2.813V13.04v-0.475c0-1.555-0.121-2.627-0.362-3.215
	c-0.241-0.588-0.661-1.091-1.257-1.507c-0.466-0.314-1.044-0.558-1.732-0.725c-0.69-0.167-1.472-0.251-2.351-0.251
	c-1.948,0-3.402,0.432-4.358,1.296s-1.435,2.182-1.435,3.955h4.266V12.01c0-0.669,0.125-1.165,0.375-1.485
	c0.25-0.321,0.634-0.481,1.152-0.481c0.429,0,0.759,0.119,0.987,0.359c0.229,0.24,0.343,0.59,0.343,1.052
	c0,0.751-0.795,1.423-2.384,2.021c-0.552,0.209-0.992,0.376-1.317,0.503c-1.351,0.561-2.323,1.225-2.915,1.994
	c-0.594,0.77-0.889,1.746-0.889,2.931c0,1.355,0.349,2.432,1.047,3.229c0.697,0.796,1.643,1.193,2.836,1.193
	c0.746,0,1.438-0.147,2.075-0.44c0.636-0.294,1.221-0.731,1.757-1.311l0.251,1.438v-0.001h4.451
	C25.083,22.604,24.945,22.078,24.861,21.43z M20.286,17.205c0,1.022-0.141,1.75-0.422,2.184c-0.282,0.435-0.733,0.651-1.356,0.651
	c-0.422,0-0.756-0.149-1.007-0.447c-0.25-0.299-0.375-0.697-0.375-1.193c0-0.705,0.25-1.293,0.757-1.763
	c0.504-0.471,1.305-0.866,2.403-1.181V17.205z"/>
</svg>
