<?xml version="1.0" encoding="utf-8"?>
<!-- Generator: Adobe Illustrator 16.0.0, SVG Export Plug-In . SVG Version: 6.00 Build 0)  -->
<!DOCTYPE svg PUBLIC "-//W3C//DTD SVG 1.1//EN" "http://www.w3.org/Graphics/SVG/1.1/DTD/svg11.dtd">
<svg version="1.1" id="Layer_1" xmlns="http://www.w3.org/2000/svg" xmlns:xlink="http://www.w3.org/1999/xlink" x="0px" y="0px"
	 width="100px" height="100px" viewBox="0 0 100 100" enable-background="new 0 0 100 100" xml:space="preserve">
<g>
	<path fill="#FFFFFF" d="M59.815,36.97c1.855-1.033,3.723-2.1,5.595-3.182c3.24-10.902,7.855-21.743,13.853-32.376
		c1.27-2.245,0.376-2.471-2.063-0.559c-8.315,6.521-16.437,12.739-24.364,18.656c-2.317,1.737-4.865,4.353-5.655,5.887
		c-1.019,1.974-1.962,3.957-2.847,5.947c3.248-2.165,6.515-4.368,9.825-6.655c2.815-1.959,4.164-1.58,3.098,0.929
		c-5.851,13.831-9.018,27.914-9.501,41.829c1.587-0.304,3.177-0.632,4.769-0.98c0.361-8.333,1.605-16.717,3.767-25.076
		C56.701,39.793,58.297,37.824,59.815,36.97z"/>
	<path fill="#FFFFFF" d="M84.936,3.859c-1.877,1.402-3.74,2.787-5.598,4.151c-0.541,0.399-1.197,1.177-1.456,1.739
		c-2.319,4.917-4.36,9.858-6.123,14.822c-0.198,0.571,0.034,0.782,0.522,0.472c1.691-1.076,3.388-2.172,5.094-3.286
		c0.494-0.323,1.07-1.08,1.298-1.694c1.943-5.309,4.179-10.594,6.715-15.847C85.677,3.611,85.477,3.454,84.936,3.859z"/>
	<path fill="#FFFFFF" d="M62.506,56.005c0.174-1.453,1.269-2.995,2.403-3.459c2.663-1.069,5.344-2.22,8.032-3.404
		c1.041-6.509,2.509-13.023,4.409-19.519c0.598-2.038-0.143-2.89-1.702-1.928c-3.444,2.112-6.854,4.137-10.238,6.092
		c-2.647,8.909-4.379,17.859-5.172,26.773c-0.204,2.299-1.723,4.521-3.471,4.928c-1.417,0.345-2.83,0.668-4.243,0.977
		c-0.242,5.587-0.099,11.149,0.472,16.664c0.16,1.569,1.405,2.912,2.724,2.981c2.208,0.096,4.414,0.146,6.618,0.152
		C61.22,76.283,61.263,66.16,62.506,56.005z"/>
	<path fill="#FFFFFF" d="M18.169,82.672c-2.405-9.743-2.123-19.948,0.798-30.044c-3.618,2.078-7.193,4.051-10.724,5.898
		c-2.194,1.17-4.174,2.728-4.407,3.542c-2.081,7.308-1.657,14.719,1.327,21.52c0.333,0.757,2.432,2.491,4.617,3.835
		c7.482,4.522,14.734,8.555,21.811,12.093c2.068,1.058,3.066,0.322,2.375-1.607c-0.997-2.751-1.809-5.541-2.467-8.357
		c-2.832-0.932-5.673-1.907-8.537-2.974C20.663,85.694,18.477,83.925,18.169,82.672z"/>
	<path fill="#FFFFFF" d="M76.713,47.466c-1.262,0.579-2.515,1.122-3.771,1.676c-1.779,11.14-2.301,22.264-1.547,33.258
		c0.135,2.016-0.771,3.697-2.088,3.739c-2.321,0.092-4.644,0.131-6.969,0.124c0.28,2.493,0.613,4.98,1.04,7.454
		c0.241,1.417,1.33,2.684,2.388,2.819c3.648,0.445,7.276,0.765,10.898,0.97c1.054,0.06,1.675-1.277,1.431-2.981
		c-2.128-14.755-2.053-29.803,0.203-44.883C78.562,47.9,77.864,46.932,76.713,47.466z"/>
	<path fill="#FFFFFF" d="M35.786,66.479c0.527-11.701,3.394-23.538,8.548-35.135c-6.196,4.129-12.292,8.058-18.276,11.741
		c-2.665,1.663-5.233,4.003-5.703,5.294c-0.515,1.414-0.977,2.83-1.388,4.25c4.08-2.343,8.214-4.822,12.418-7.458
		c2.324-1.473,3.552-1.073,2.834,0.959c-5.098,14.525-6.02,29.325-2.722,43.421c4.979,1.64,9.919,3.095,14.819,4.317
		c2.241,0.586,3.577-0.968,3.122-3.438c-1.405-7.561-1.955-15.247-1.685-22.984c-2.98,0.57-5.953,1.063-8.919,1.478
		C37.111,69.15,35.715,68.036,35.786,66.479z"/>
</g>
</svg>
