<?xml version="1.0" encoding="utf-8"?>
<!-- Generator: Adobe Illustrator 16.0.0, SVG Export Plug-In . SVG Version: 6.00 Build 0)  -->
<!DOCTYPE svg PUBLIC "-//W3C//DTD SVG 1.1//EN" "http://www.w3.org/Graphics/SVG/1.1/DTD/svg11.dtd">
<svg version="1.1" id="Layer_1" xmlns="http://www.w3.org/2000/svg" xmlns:xlink="http://www.w3.org/1999/xlink" x="0px" y="0px"
	 width="17px" height="17px" viewBox="6.5 6.5 17 17" enable-background="new 6.5 6.5 17 17" xml:space="preserve">
<g id="ball">
	<g>
		<path fill="#FFFFFF" d="M15.117,6.732c-4.624,0-8.386,3.761-8.386,8.384c0,4.624,3.762,8.384,8.386,8.384
			c4.623,0,8.383-3.761,8.383-8.384C23.502,10.494,19.74,6.732,15.117,6.732z M20.659,10.598c0.998,1.219,1.601,2.771,1.618,4.46
			c-0.237-0.049-2.604-0.529-4.987-0.229c-0.051-0.123-0.102-0.245-0.154-0.37c-0.149-0.349-0.31-0.696-0.476-1.037
			C19.309,12.341,20.509,10.802,20.659,10.598z M15.117,7.965c1.818,0,3.481,0.683,4.746,1.804c-0.13,0.185-1.207,1.632-3.754,2.588
			c-1.173-2.156-2.474-3.928-2.672-4.192C13.977,8.034,14.539,7.965,15.117,7.965z M12.071,8.646
			c0.188,0.259,1.468,2.032,2.656,4.141c-3.351,0.89-6.301,0.877-6.621,0.873C8.571,11.438,10.068,9.592,12.071,8.646z
			 M7.955,15.127c0-0.072,0.002-0.146,0.004-0.219c0.313,0.007,3.784,0.052,7.361-1.019c0.203,0.401,0.4,0.809,0.579,1.216
			c-0.094,0.025-0.189,0.056-0.281,0.085c-3.692,1.193-5.659,4.448-5.82,4.726C8.653,18.646,7.955,16.966,7.955,15.127z
			 M15.117,22.289c-1.656,0-3.182-0.566-4.396-1.513c0.129-0.264,1.579-3.065,5.619-4.472c0.016-0.007,0.03-0.011,0.046-0.018
			c1.006,2.614,1.423,4.803,1.529,5.432C17.055,22.084,16.108,22.289,15.117,22.289z M19.117,21.065
			c-0.072-0.438-0.455-2.533-1.392-5.107c2.243-0.359,4.217,0.229,4.462,0.307C21.868,18.256,20.725,19.978,19.117,21.065z"/>
	</g>
</g>
</svg>
