<?xml version="1.0" encoding="utf-8"?>
<!-- Generator: Adobe Illustrator 16.0.0, SVG Export Plug-In . SVG Version: 6.00 Build 0)  -->
<!DOCTYPE svg PUBLIC "-//W3C//DTD SVG 1.1//EN" "http://www.w3.org/Graphics/SVG/1.1/DTD/svg11.dtd">
<svg version="1.1" id="Layer_1" xmlns="http://www.w3.org/2000/svg" xmlns:xlink="http://www.w3.org/1999/xlink" x="0px" y="0px"
	 width="30px" height="30px" viewBox="5 5 30 30" enable-background="new 5 5 30 30" xml:space="preserve">
<g>
	<path opacity="0.5" fill-rule="evenodd" clip-rule="evenodd" d="M20.349,20.026c-0.139-0.293-0.283-0.554-0.387-0.83
		c-0.102-0.269-0.247-0.287-0.507-0.215c-1.913,0.529-3.865,0.812-5.846,0.888c-0.384,0.015-0.769,0.039-1.183,0.06
		c-0.019,1.861,0.583,3.438,1.795,4.829C15.75,22.502,17.715,20.855,20.349,20.026z"/>
	<path opacity="0.5" fill-rule="evenodd" clip-rule="evenodd" d="M24.362,14.773c-1.903-1.523-3.997-2.028-6.339-1.563
		c0.892,1.368,1.763,2.703,2.657,4.073C22.09,16.731,23.368,15.998,24.362,14.773z"/>
	<path opacity="0.5" fill-rule="evenodd" clip-rule="evenodd" d="M16.558,13.695c-2.093,1.049-3.4,2.628-3.984,4.898
		c2.263-0.012,4.424-0.304,6.642-0.865C18.306,16.347,17.438,15.03,16.558,13.695z"/>
	<path opacity="0.5" fill-rule="evenodd" clip-rule="evenodd" d="M15.217,25.628c2.073,1.763,5.436,1.856,7.174,0.904
		c-0.34-1.795-0.841-3.547-1.524-5.266C18.479,22.13,16.518,23.449,15.217,25.628z"/>
	<path opacity="0.5" fill-rule="evenodd" clip-rule="evenodd" d="M22.363,20.926c0.466,1.663,0.922,3.293,1.385,4.946
		c1.599-1.15,2.609-2.665,2.966-4.64C25.239,20.829,23.793,20.719,22.363,20.926z"/>
	<path opacity="0.5" fill-rule="evenodd" clip-rule="evenodd" d="M21.227,18.416c0.213,0.462,0.41,0.895,0.552,1.202
		c1.728,0.083,3.366,0.16,5.024,0.239c-0.045-1.527-0.569-2.932-1.598-4.215C24.118,16.933,22.745,17.758,21.227,18.416z"/>
	<path opacity="0.5" fill-rule="evenodd" clip-rule="evenodd" d="M19.617,5.302c-8.17,0-14.792,6.623-14.792,14.792
		s6.623,14.793,14.792,14.793s14.792-6.623,14.792-14.793S27.787,5.302,19.617,5.302z M19.611,28.421
		c-4.691-0.009-8.504-3.761-8.492-8.356c0.012-4.613,3.829-8.304,8.578-8.295c4.628,0.008,8.454,3.8,8.419,8.342
		C28.08,24.711,24.273,28.43,19.611,28.421z"/>
</g>
</svg>
