<?xml version="1.0" encoding="utf-8"?>
<!-- Generator: Adobe Illustrator 16.0.0, SVG Export Plug-In . SVG Version: 6.00 Build 0)  -->
<!DOCTYPE svg PUBLIC "-//W3C//DTD SVG 1.1//EN" "http://www.w3.org/Graphics/SVG/1.1/DTD/svg11.dtd">
<svg version="1.1" id="Layer_1" xmlns="http://www.w3.org/2000/svg" xmlns:xlink="http://www.w3.org/1999/xlink" x="0px" y="0px"
	 width="30px" height="30px" viewBox="5 5 30 30" enable-background="new 5 5 30 30" xml:space="preserve">
<path opacity="0.5" d="M19.792,5.416C11.624,5.416,5,12.038,5,20.207C5,28.376,11.624,35,19.792,35
	c8.169,0,14.793-6.624,14.793-14.793C34.585,12.038,27.964,5.416,19.792,5.416z M22.848,15.084h-1.496
	c-1.241,0-1.025,1.034-1.025,1.034v1.229h2.537v3.016h-2.537v8.031h-3.494v-8.031h-1.521l0.025-3.016h1.498c0,0,0-0.77,0-1.59
	c0-3.834,3.684-3.448,3.684-3.448h2.356L22.848,15.084z"/>
</svg>
