<?xml version="1.0" encoding="utf-8"?>
<!-- Generator: Adobe Illustrator 16.0.0, SVG Export Plug-In . SVG Version: 6.00 Build 0)  -->
<!DOCTYPE svg PUBLIC "-//W3C//DTD SVG 1.1//EN" "http://www.w3.org/Graphics/SVG/1.1/DTD/svg11.dtd">
<svg version="1.1" id="Layer_1" xmlns="http://www.w3.org/2000/svg" xmlns:xlink="http://www.w3.org/1999/xlink" x="0px" y="0px"
	 width="30px" height="30px" viewBox="5 5 30 30" enable-background="new 5 5 30 30" xml:space="preserve">
<path opacity="0.5" d="M19.792,5.417C11.624,5.417,5,12.039,5,20.208S11.624,35,19.792,35c8.168,0,14.792-6.624,14.792-14.792
	S27.962,5.417,19.792,5.417z M23.646,24.958c-0.003,0.884-0.001,0.889-0.839,1.158c-1.154,0.37-2.337,0.525-3.529,0.23
	c-0.447-0.108-0.892-0.297-1.296-0.523c-0.817-0.454-1.154-1.209-1.16-2.123c-0.009-1.496-0.001-2.995-0.001-4.493
	c0-0.109,0-0.219,0-0.378c-0.521,0-0.987,0-1.498,0c0-0.604-0.005-1.181,0.008-1.76c0.001-0.058,0.104-0.136,0.175-0.163
	c1.546-0.573,2.343-1.711,2.536-3.317c0.004-0.031,0.015-0.062,0.028-0.112c0.631,0,1.262,0,1.929,0c0,1.083,0,2.151,0,3.263
	c1.075,0,2.118,0,3.186,0c0,0.708,0,1.371,0,2.077c-1.054,0-2.097,0-3.18,0c0,0.53,0,1.019,0,1.509c0,0.848,0,1.698,0.004,2.547
	c0.003,0.92,0.529,1.452,1.448,1.483c0.777,0.026,1.465-0.241,2.191-0.643C23.647,24.148,23.648,24.553,23.646,24.958z"/>
</svg>
