<?xml version="1.0" encoding="utf-8"?>
<!-- Generator: Adobe Illustrator 16.0.0, SVG Export Plug-In . SVG Version: 6.00 Build 0)  -->
<!DOCTYPE svg PUBLIC "-//W3C//DTD SVG 1.1//EN" "http://www.w3.org/Graphics/SVG/1.1/DTD/svg11.dtd">
<svg version="1.1" id="Layer_1" xmlns="http://www.w3.org/2000/svg" xmlns:xlink="http://www.w3.org/1999/xlink" x="0px" y="0px"
	 width="17px" height="17px" viewBox="6.5 6.5 17 17" enable-background="new 6.5 6.5 17 17" xml:space="preserve">
<path fill="#FFFFFF" d="M19.263,19.773c-0.005,0.896-0.001,0.9-0.853,1.175c-1.172,0.376-2.369,0.532-3.578,0.233
	c-0.453-0.111-0.904-0.301-1.314-0.529c-0.829-0.461-1.171-1.227-1.176-2.153c-0.01-1.519-0.002-3.036-0.002-4.556
	c0-0.112,0-0.223,0-0.385c-0.528,0-1,0-1.519,0c0-0.611-0.005-1.197,0.007-1.785c0.002-0.058,0.106-0.137,0.178-0.164
	c1.567-0.582,2.376-1.735,2.572-3.363c0.004-0.032,0.016-0.063,0.028-0.114c0.642,0,1.279,0,1.956,0c0,1.099,0,2.181,0,3.308
	c1.091,0,2.148,0,3.23,0c0,0.72,0,1.391,0,2.106c-1.068,0-2.127,0-3.226,0c0,0.538,0,1.032,0,1.529c0.001,0.86,0,1.723,0.005,2.584
	c0.004,0.932,0.536,1.472,1.469,1.503c0.787,0.029,1.484-0.243,2.224-0.652C19.265,18.954,19.266,19.364,19.263,19.773z"/>
</svg>
