<?xml version="1.0" encoding="utf-8"?>
<!-- Generator: Adobe Illustrator 16.0.0, SVG Export Plug-In . SVG Version: 6.00 Build 0)  -->
<!DOCTYPE svg PUBLIC "-//W3C//DTD SVG 1.1//EN" "http://www.w3.org/Graphics/SVG/1.1/DTD/svg11.dtd">
<svg version="1.1" id="Layer_1" xmlns="http://www.w3.org/2000/svg" xmlns:xlink="http://www.w3.org/1999/xlink" x="0px" y="0px"
	 width="17px" height="17px" viewBox="6.5 6.5 17 17" enable-background="new 6.5 6.5 17 17" xml:space="preserve">
<path fill="#FFFFFF" d="M23.473,14c0,0-0.009,0.924-1.974,0.918c0,0-1.658,4.805-5.688,5.465c-4.899,0.803-8.339-1.646-8.717-3.275
	c0,0,3.258,2.832,5.851,0.023c0,0-0.434-0.002-0.709-0.211c-0.256-0.199-0.354-0.607-0.354-0.607s0.806-0.453,0.501-0.793
	c0,0-1.782-0.035-1.88-1.111l1.045-0.677c0,0-0.41,0.199-0.819-0.002c0,0-1.055-0.759-0.856-1.533l0.886-0.09
	c0,0-1.53-1.089-1.104-1.924c0,0,0.147-0.72,5.214,2.646c0,0,0.895-3.181,2.543-3.88c0,0,0.276,0.132,0.276,0.271
	c0,0,0.235-0.504,0.541-0.551c0,0,0.376,0.329,0.132,0.517c0,0,0.627-0.43,0.936-0.212c0,0-0.025,0.384-0.926,0.857
	c0,0,2.343,0.13,3.16,3.253c0,0,1.017,0.365,1.969-0.248c0,0,0.078,0.461-1.401,1.115C22.091,13.948,22.229,14.17,23.473,14z"/>
</svg>
